<svg xmlns="http://www.w3.org/2000/svg" viewBox="0 0 441 443.02"><defs><style>.cls-1,.cls-2{fill:none;stroke:#000;stroke-miterlimit:10;}.cls-1{stroke-width:6px;}.cls-2{stroke-width:5px;}</style></defs><title>elements</title><g id="circle"><ellipse class="cls-1" cx="220.5" cy="221.51" rx="217.5" ry="218.51"/></g><g id="earth"><path class="cls-1" d="M121.33,422.56C139.66,416.12,242,175,242,175S374,402,393,427" transform="translate(-36 -29.98)"/></g><g id="wind"><path d="M41.29,221.48c7,21.57,15.3,42.72,27.11,61.8,1.43,2.41,3,4.71,4.56,7s3.2,4.58,4.94,6.76a136.43,136.43,0,0,0,10.84,12.69l2.94,3c1,1,2,1.88,3,2.84,2,1.94,4.18,3.65,6.29,5.44a123.78,123.78,0,0,0,13.65,9.47,111.65,111.65,0,0,0,30.72,12.8c1.36.33,2.7.73,4.08,1l4.13.79c2.74.6,5.55.84,8.33,1.23a80.72,80.72,0,0,0,16.78.24A97.27,97.27,0,0,0,211,337.38c2.55-1.18,5.06-2.47,7.53-3.81s4.89-2.8,7.28-4.29c4.78-3,9.42-6.19,13.95-9.54,9.05-6.73,17.61-14.1,26.08-21.58S282.6,283,291,275.34c16.75-15.29,33.56-30.79,52.47-43.89a184.67,184.67,0,0,1,30-17.07,128.1,128.1,0,0,1,16.34-5.91c1.4-.37,2.81-.76,4.2-1.1l4.16-1c2.77-.67,5.55-1.27,8.34-1.89s5.58-1.17,8.37-1.74,5.6-1.07,8.43-1.51c5.63-1,11.3-1.73,17-2.21a89.16,89.16,0,0,1,17.23,0,26.77,26.77,0,0,1,8.46,2.19,8.8,8.8,0,0,1,3.48,2.85,5,5,0,0,1,.56,4.44l-.56-.22a4.23,4.23,0,0,0-.79-3.65,8.07,8.07,0,0,0-3.24-2.2,25.26,25.26,0,0,0-8.07-1.47,96.43,96.43,0,0,0-16.73,1.16,317.17,317.17,0,0,0-33.06,7c-2.73.72-5.46,1.42-8.18,2.18l-4.08,1.13-4,1.19a122.53,122.53,0,0,0-15.48,6.08,190.65,190.65,0,0,0-28.77,17q-6.87,4.83-13.53,10c-4.43,3.46-8.78,7-13.14,10.63-8.68,7.21-17.18,14.68-25.68,22.19-17,15-34.16,30.1-53.12,42.88-4.72,3.21-9.56,6.26-14.53,9.08q-3.73,2.12-7.55,4c-2.54,1.3-5.11,2.55-7.73,3.69a111.14,111.14,0,0,1-32.93,9.24,90.44,90.44,0,0,1-17.19.28c-2.85-.25-5.72-.35-8.56-.82l-4.27-.59c-1.42-.2-2.82-.54-4.23-.8s-2.83-.54-4.23-.88l-4.18-1.1-2.09-.55c-.69-.2-1.37-.44-2.06-.66L128,342c-1.38-.44-2.69-1-4-1.57s-2.71-1-4-1.69c-2.6-1.27-5.27-2.42-7.76-3.92a107.57,107.57,0,0,1-14.48-9.61,121.23,121.23,0,0,1-12.79-11.75,146.32,146.32,0,0,1-20.48-27.79,167,167,0,0,1-7.87-15.3c-1.21-2.59-2.32-5.23-3.43-7.87s-2.1-5.32-3.05-8a247.11,247.11,0,0,1-9.34-32.85Z" transform="translate(-36 -29.98)"/></g><g id="fire"><path class="cls-2" d="M241.5,183.5c9.81,39.87,25.38,114.46,2,184-22.9,68.09-23,71-11,89s70.26,11.2,73-10c4-31,7.36-45.64-27-48-14.75-1-22,41-22,41" transform="translate(-36 -29.98)"/></g><g id="air"><path d="M241.44,180.71c-4.55-3.52-9.29-6.79-14-10.17s-9.28-6.88-13.81-10.5c-9-7.25-17.78-15-25.31-24.18a84.24,84.24,0,0,1-9.86-14.92,56.25,56.25,0,0,1-5.7-17.43A45,45,0,0,1,174,84.86a49.21,49.21,0,0,1,3.34-8.75,60.18,60.18,0,0,1,4.68-8A86.32,86.32,0,0,1,194,54.39a75.3,75.3,0,0,1,7-5.89,67,67,0,0,1,7.77-5,59.73,59.73,0,0,1,8.49-3.93A55.74,55.74,0,0,1,226.31,37a57.59,57.59,0,0,1,18.83-.55,64.59,64.59,0,0,1,17.95,5.21,79.84,79.84,0,0,1,15.82,9.54,85.47,85.47,0,0,1,13.26,12.74,74.28,74.28,0,0,1,10.15,15.57,45.33,45.33,0,0,1,4.75,18.9,29.74,29.74,0,0,1-.48,5.3,24.52,24.52,0,0,1-1.67,5.31l-1.87,4-1.9,3.95a141.51,141.51,0,0,1-8.7,15.69,63.78,63.78,0,0,1-5.64,7.48,40.28,40.28,0,0,1-7.34,6.6,27.19,27.19,0,0,1-9.71,4.18,25.49,25.49,0,0,1-10.66-.13c-.85-.19-1.66-.46-2.48-.7a17.13,17.13,0,0,1-2.38-.86c-.76-.33-1.56-.62-2.29-1L249.79,147a20.42,20.42,0,0,1-2.07-1.23l-2-1.3c-1.27-.92-2.5-1.87-3.74-2.82a96.87,96.87,0,0,1-12.77-12.84c-2-2.25-3.71-4.63-5.54-7s-3.52-4.9-5.11-7.51c-3.12-5.23-5.87-11-6.7-17.67a23.09,23.09,0,0,1,1-10.26,20.17,20.17,0,0,1,5.92-8.59A27.41,27.41,0,0,1,227.35,73a40.14,40.14,0,0,1,9.16-2.14A50.85,50.85,0,0,1,254.74,72a43,43,0,0,1,8.62,3.18A29.92,29.92,0,0,1,271,80.57a21.91,21.91,0,0,1,3,3.7c.82,1.25,1.58,2.53,2.31,3.83A49.88,49.88,0,0,1,280,96.28a37.07,37.07,0,0,1,1.87,8.8,19,19,0,0,1-1.26,9.06,9.31,9.31,0,0,1-2.94,3.74,7.64,7.64,0,0,1-4.5,1.44,15.36,15.36,0,0,1-8.29-3.06l.32-.51c2.41,1.46,5.12,2.68,7.92,2.58a6.55,6.55,0,0,0,3.81-1.38,8,8,0,0,0,2.4-3.33,14.57,14.57,0,0,0,.94-4.1,24.64,24.64,0,0,0-.08-4.25A35.19,35.19,0,0,0,278.1,97a47.7,47.7,0,0,0-3.73-7.71c-.74-1.22-1.51-2.43-2.34-3.6a19.42,19.42,0,0,0-2.76-3.22c-4.2-3.84-9.68-6.07-15.22-7.33a48.16,48.16,0,0,0-17-.72,36.56,36.56,0,0,0-8.26,2.12,23.6,23.6,0,0,0-7.24,4.36,16.25,16.25,0,0,0-4.61,6.94,18.74,18.74,0,0,0-.67,8.35c.77,5.63,3.31,10.91,6.33,15.74A114.55,114.55,0,0,0,233,125.56a94.38,94.38,0,0,0,12.24,12c4.46,3.55,9.48,6.54,15,7.82a20,20,0,0,0,8.36,0,21.55,21.55,0,0,0,7.66-3.4,45.63,45.63,0,0,0,11.38-12.6,135.82,135.82,0,0,0,8.27-15.08c1.24-2.59,2.47-5.2,3.66-7.81a18.64,18.64,0,0,0,1.23-4,23.84,23.84,0,0,0,.36-4.19A39.52,39.52,0,0,0,296.91,82a69,69,0,0,0-9.28-14.35,79.6,79.6,0,0,0-12.3-11.92c-9-7-19.65-12.15-31-13.77a52,52,0,0,0-17,.32,50.36,50.36,0,0,0-8.25,2.25,54.46,54.46,0,0,0-7.81,3.51A61.9,61.9,0,0,0,204,52.67a73.51,73.51,0,0,0-6.64,5.44,81.33,81.33,0,0,0-11.47,12.75,55.44,55.44,0,0,0-4.46,7.31,44.68,44.68,0,0,0-3.18,7.93A41.68,41.68,0,0,0,176.81,103a52.53,52.53,0,0,0,4.94,16.34,82.52,82.52,0,0,0,9.11,14.56c7,9.11,15.37,17.11,24.08,24.6,4.37,3.74,8.86,7.35,13.38,10.92s9.1,7.06,13.5,10.8Z" transform="translate(-36 -29.98)"/></g></svg>
