<svg id="Layer_1" data-name="Layer 1" xmlns="http://www.w3.org/2000/svg" xmlns:xlink="http://www.w3.org/1999/xlink" viewBox="0 0 188.77 315.75"><defs><style>.cls-1{fill:none;}.cls-2{clip-path:url(#clip-path);}.cls-3{fill:#120087;}.cls-4{fill:#94c1d1;}.cls-5{fill:#d4d4d4;}</style><clipPath id="clip-path" transform="translate(-144 -60)"><rect class="cls-1" x="144" y="60" width="188.77" height="315.75"/></clipPath></defs><title>logo</title><g id="sample_logo" data-name="sample logo"><g class="cls-2"><g class="cls-2"><path class="cls-3" d="M180.74,200.67s-38.67,43.33-36.67,70,4.67,73.33,26.67,84.67,47.33,20.67,72.67,12,32-8.67,44-29.33,31.33-60,32-78.67-41.33,8-62.67,12-76-70.67-76-70.67" transform="translate(-144 -60)"/><path class="cls-4" d="M226.07,175.33,203.41,216c-18.67,28-29.33,98-25.33,110.67s28.67,44,46,46.67,45.33,4.67,51.33-2.67,1.33-73.33-.67-74-45.33,21.33-56-2,1.33-68,8.67-90.67-1.33-28.67-1.33-28.67" transform="translate(-144 -60)"/><path class="cls-5" d="M233.41,60c-17.33,23.33-30,50.67-24.67,72s17.33,34.67,30,45.33S262.08,198,269.41,208s32,35.33,6.67,90-32.67,62-30,74,57.33-12.67,63.33-20,47.33-76,3.33-144c-7.33-11.33-68.67-54.67-82-82s2.67-66,2.67-66" transform="translate(-144 -60)"/><path class="cls-5" d="M255.41,77c-5.64-3.55-12.67,25.09-12.67,34,0,3.33,2.67,14.57,8.67,19.43s12.64-5.4,12-9.11c-.94-5.46-8.79-11.19-8-20.65.67-8,2.67-22,0-23.68" transform="translate(-144 -60)"/></g></g></g></svg>